<?xml version="1.0" encoding="us-ascii" standalone="no"?><svg xmlns="http://www.w3.org/2000/svg" xmlns:xlink="http://www.w3.org/1999/xlink" contentStyleType="text/css" height="476px" preserveAspectRatio="none" style="width:416px;height:476px;background:#FFFFFF;" version="1.1" viewBox="0 0 416 476" width="416px" zoomAndPan="magnify"><defs/><g><!--cluster proxy_db--><g id="cluster_proxy_db"><path d="M8.5,6 L81.5,6 A3.75,3.75 0 0 1 84,8.5 L91,28.2969 L406.5,28.2969 A2.5,2.5 0 0 1 409,30.7969 L409,466.5 A2.5,2.5 0 0 1 406.5,469 L8.5,469 A2.5,2.5 0 0 1 6,466.5 L6,8.5 A2.5,2.5 0 0 1 8.5,6 " fill="none" style="stroke:#000000;stroke-width:1.5;"/><line style="stroke:#000000;stroke-width:1.5;" x1="6" x2="91" y1="28.2969" y2="28.2969"/><text fill="#000000" font-family="sans-serif" font-size="14" font-weight="bold" lengthAdjust="spacing" textLength="72" x="10" y="20.9951">proxy_db</text></g><!--cluster proxy_db.dart--><g id="cluster_proxy_db.dart"><path d="M32.5,49 L145.5,49 A3.75,3.75 0 0 1 148,51.5 L155,71.2969 L382.5,71.2969 A2.5,2.5 0 0 1 385,73.7969 L385,442.5 A2.5,2.5 0 0 1 382.5,445 L32.5,445 A2.5,2.5 0 0 1 30,442.5 L30,51.5 A2.5,2.5 0 0 1 32.5,49 " fill="none" style="stroke:#000000;stroke-width:1.5;"/><line style="stroke:#000000;stroke-width:1.5;" x1="30" x2="155" y1="71.2969" y2="71.2969"/><text fill="#000000" font-family="sans-serif" font-size="14" font-weight="bold" lengthAdjust="spacing" textLength="112" x="34" y="63.9951">proxy_db.dart</text></g><!--class Database--><g id="elem_Database"><rect codeLine="3" fill="#F1F1F1" height="64.2969" id="Database" rx="2.5" ry="2.5" style="stroke:#181818;stroke-width:0.5;" width="218" x="81" y="84"/><ellipse cx="151.75" cy="100" fill="#A9DCDF" rx="11" ry="11" style="stroke:#181818;stroke-width:1.0;"/><path d="M153.8281,101.8125 L154.2188,102.7969 L153.8281,102.7969 C153.375,102.7969 153.2656,102.8125 153.1094,102.9219 C152.8594,103.0781 152.7031,103.3594 152.7031,103.6563 C152.7031,103.9219 152.8438,104.1719 153.0625,104.3281 C153.2031,104.4531 153.4063,104.5 153.8281,104.5 L156.1875,104.5 C156.5469,104.5 156.7656,104.4688 156.9063,104.375 C157.1563,104.2344 157.3125,103.9375 157.3125,103.6563 C157.3125,103.375 157.1719,103.125 156.9531,102.9688 C156.7813,102.8281 156.625,102.7969 156.1563,102.7969 L152.7656,94.5938 L149.0938,94.5938 C148.6406,94.5938 148.5156,94.6094 148.3594,94.7031 C148.1094,94.875 147.9531,95.1563 147.9531,95.4375 C147.9531,95.7188 148.0938,95.9688 148.3125,96.1406 C148.4844,96.25 148.6563,96.2813 149.0938,96.2813 L150.1719,96.2813 L147.5313,102.7969 C147.1094,102.7969 146.9531,102.8125 146.7969,102.9219 C146.5469,103.0781 146.3906,103.3594 146.3906,103.6563 C146.3906,104.2188 146.7656,104.5 147.5156,104.5 L149.7813,104.5 C150.1406,104.5 150.3594,104.4688 150.4844,104.375 C150.75,104.2344 150.8906,103.9375 150.8906,103.6563 C150.8906,103.375 150.7656,103.125 150.5469,102.9531 C150.375,102.8281 150.2344,102.7969 149.7813,102.7969 L149.3906,102.7969 L149.7813,101.8125 L153.8281,101.8125 Z M153.125,100.1094 L150.4531,100.1094 L151.7969,96.8438 L153.125,100.1094 Z " fill="#000000"/><text fill="#000000" font-family="sans-serif" font-size="14" font-style="italic" lengthAdjust="spacing" textLength="68" x="172.25" y="104.8467">Database</text><line style="stroke:#181818;stroke-width:0.5;" x1="82" x2="298" y1="116" y2="116"/><line style="stroke:#181818;stroke-width:0.5;" x1="82" x2="298" y1="124" y2="124"/><ellipse cx="92" cy="137.6484" fill="#84BE84" rx="3" ry="3" style="stroke:#038048;stroke-width:1.0;"/><text fill="#000000" font-family="sans-serif" font-size="14" lengthAdjust="spacing" textLength="192" x="101" y="140.9951">Future&lt;String&gt; readData()</text></g><!--class RemoteDatabase--><g id="elem_RemoteDatabase"><rect codeLine="7" fill="#F1F1F1" height="64.2969" id="RemoteDatabase" rx="2.5" ry="2.5" style="stroke:#181818;stroke-width:0.5;" width="218" x="81" y="365"/><ellipse cx="123" cy="381" fill="#ADD1B2" rx="11" ry="11" style="stroke:#181818;stroke-width:1.0;"/><path d="M125.3438,376.6719 C124.4063,376.2344 123.8125,376.0938 122.9375,376.0938 C120.3125,376.0938 118.3125,378.1719 118.3125,380.8906 L118.3125,382.0156 C118.3125,384.5938 120.4219,386.4844 123.3125,386.4844 C124.5313,386.4844 125.6875,386.1875 126.4375,385.6406 C127.0156,385.2344 127.3438,384.7813 127.3438,384.3906 C127.3438,383.9375 126.9531,383.5469 126.4844,383.5469 C126.2656,383.5469 126.0625,383.625 125.875,383.8125 C125.4219,384.2969 125.4219,384.2969 125.2344,384.3906 C124.8125,384.6563 124.125,384.7813 123.3594,384.7813 C121.3125,384.7813 120.0156,383.6875 120.0156,381.9844 L120.0156,380.8906 C120.0156,379.1094 121.2656,377.7969 123,377.7969 C123.5781,377.7969 124.1875,377.9531 124.6563,378.2031 C125.1406,378.4844 125.3125,378.7031 125.4063,379.1094 C125.4688,379.5156 125.5,379.6406 125.6406,379.7656 C125.7813,379.9063 126.0156,380.0156 126.2344,380.0156 C126.5,380.0156 126.7656,379.875 126.9375,379.6563 C127.0469,379.5 127.0781,379.3125 127.0781,378.8906 L127.0781,377.4688 C127.0781,377.0313 127.0625,376.9063 126.9688,376.75 C126.8125,376.4844 126.5313,376.3438 126.2344,376.3438 C125.9375,376.3438 125.7344,376.4375 125.5156,376.75 L125.3438,376.6719 Z " fill="#000000"/><text fill="#000000" font-family="sans-serif" font-size="14" lengthAdjust="spacing" textLength="126" x="143" y="385.8467">RemoteDatabase</text><line style="stroke:#181818;stroke-width:0.5;" x1="82" x2="298" y1="397" y2="397"/><line style="stroke:#181818;stroke-width:0.5;" x1="82" x2="298" y1="405" y2="405"/><ellipse cx="92" cy="418.6484" fill="#84BE84" rx="3" ry="3" style="stroke:#038048;stroke-width:1.0;"/><text fill="#000000" font-family="sans-serif" font-size="14" lengthAdjust="spacing" textLength="192" x="101" y="421.9951">Future&lt;String&gt; readData()</text></g><!--class DatabaseProxy--><g id="elem_DatabaseProxy"><rect codeLine="13" fill="#F1F1F1" height="96.8906" id="DatabaseProxy" rx="2.5" ry="2.5" style="stroke:#181818;stroke-width:0.5;" width="285" x="83.5" y="208"/><ellipse cx="167.75" cy="224" fill="#ADD1B2" rx="11" ry="11" style="stroke:#181818;stroke-width:1.0;"/><path d="M170.0938,219.6719 C169.1563,219.2344 168.5625,219.0938 167.6875,219.0938 C165.0625,219.0938 163.0625,221.1719 163.0625,223.8906 L163.0625,225.0156 C163.0625,227.5938 165.1719,229.4844 168.0625,229.4844 C169.2813,229.4844 170.4375,229.1875 171.1875,228.6406 C171.7656,228.2344 172.0938,227.7813 172.0938,227.3906 C172.0938,226.9375 171.7031,226.5469 171.2344,226.5469 C171.0156,226.5469 170.8125,226.625 170.625,226.8125 C170.1719,227.2969 170.1719,227.2969 169.9844,227.3906 C169.5625,227.6563 168.875,227.7813 168.1094,227.7813 C166.0625,227.7813 164.7656,226.6875 164.7656,224.9844 L164.7656,223.8906 C164.7656,222.1094 166.0156,220.7969 167.75,220.7969 C168.3281,220.7969 168.9375,220.9531 169.4063,221.2031 C169.8906,221.4844 170.0625,221.7031 170.1563,222.1094 C170.2188,222.5156 170.25,222.6406 170.3906,222.7656 C170.5313,222.9063 170.7656,223.0156 170.9844,223.0156 C171.25,223.0156 171.5156,222.875 171.6875,222.6563 C171.7969,222.5 171.8281,222.3125 171.8281,221.8906 L171.8281,220.4688 C171.8281,220.0313 171.8125,219.9063 171.7188,219.75 C171.5625,219.4844 171.2813,219.3438 170.9844,219.3438 C170.6875,219.3438 170.4844,219.4375 170.2656,219.75 L170.0938,219.6719 Z " fill="#000000"/><text fill="#000000" font-family="sans-serif" font-size="14" lengthAdjust="spacing" textLength="108" x="188.25" y="228.8467">DatabaseProxy</text><line style="stroke:#181818;stroke-width:0.5;" x1="84.5" x2="367.5" y1="240" y2="240"/><rect fill="none" height="6" style="stroke:#C82930;stroke-width:1.0;" width="6" x="91.5" y="250.6484"/><text fill="#000000" font-family="sans-serif" font-size="14" lengthAdjust="spacing" textLength="259" x="103.5" y="256.9951">RemoteDatabase _remoteDatabase</text><rect fill="none" height="6" style="stroke:#C82930;stroke-width:1.0;" width="6" x="91.5" y="266.9453"/><text fill="#000000" font-family="sans-serif" font-size="14" lengthAdjust="spacing" textLength="140" x="103.5" y="273.292">String _cachedData</text><line style="stroke:#181818;stroke-width:0.5;" x1="84.5" x2="367.5" y1="280.5938" y2="280.5938"/><ellipse cx="94.5" cy="294.2422" fill="#84BE84" rx="3" ry="3" style="stroke:#038048;stroke-width:1.0;"/><text fill="#000000" font-family="sans-serif" font-size="14" lengthAdjust="spacing" textLength="192" x="103.5" y="297.5889">Future&lt;String&gt; readData()</text></g><!--reverse link Database to RemoteDatabase--><g id="link_Database_RemoteDatabase"><path codeLine="11" d="M108.657,159.711 C91.511,172.778 75.6923,188.865 66,208 C46.5198,246.459 46.5198,266.541 66,305 C78.7899,330.251 102.248,350.192 125.346,364.892 " fill="none" id="Database-backto-RemoteDatabase" style="stroke:#181818;stroke-width:1.0;"/><polygon fill="none" points="104.929,153.778,125.346,148.108,112.921,165.272,104.929,153.778" style="stroke:#181818;stroke-width:1.0;"/></g><!--reverse link DatabaseProxy to RemoteDatabase--><g id="link_DatabaseProxy_RemoteDatabase"><path codeLine="19" d="M210.295,317.92 C206.093,334.085 201.722,350.903 198.117,364.772 " fill="none" id="DatabaseProxy-backto-RemoteDatabase" style="stroke:#181818;stroke-width:1.0;"/><polygon fill="none" points="213.611,305.164,208.2303,309.9649,210.5924,316.7781,215.9731,311.9773,213.611,305.164" style="stroke:#181818;stroke-width:1.0;"/></g><!--reverse link Database to DatabaseProxy--><g id="link_Database_DatabaseProxy"><path codeLine="20" d="M203.167,167.658 C206.587,180.813 210.258,194.936 213.634,207.926 " fill="none" id="Database-backto-DatabaseProxy" style="stroke:#181818;stroke-width:1.0;"/><polygon fill="none" points="196.336,169.2,198.079,148.082,209.885,165.678,196.336,169.2" style="stroke:#181818;stroke-width:1.0;"/></g><!--SRC=[hP312e9G44Ntxoi6LqNO1poaLRIE_02vFeSAqYVpHZ2gVmyp5wvKS3SpNEuzTm8hLIWvr72SSWs1UY5hZK4ULE2Kt0CXK5IBRvzPaLixJFi2ejOUeSWHEAAN8TgT6cs4arJbNbqF98oYKsosvcFCbDU5Iw-yn74EL_AEu_cXqvI3zDoTUyXuR4APZFPEqVDJvk1k_6kmGha_WbzKS8MVZVE_]--></g></svg>